<svg width="150" height="40" viewBox="0 0 150 40" fill="none" xmlns="http://www.w3.org/2000/svg">
<path d="M136.638 26.3169L131.528 33.3112H126.628L133.999 23.4689L126.879 14.0036H131.78L136.638 20.6628H137.559L142.376 14.0036H147.276L140.156 23.4689L147.527 33.3112H142.669L137.517 26.3169H136.638ZM112.891 33.73C111.174 33.73 109.54 33.3112 107.991 32.4736C106.483 31.594 105.268 30.4213 104.347 28.8717C103.425 27.3221 102.965 25.6049 102.965 23.6365C102.965 21.7518 103.425 19.9927 104.347 18.485C105.268 16.9353 106.483 15.7626 107.991 14.8831C109.54 14.0455 111.174 13.5848 112.891 13.5848C114.357 13.5848 115.655 13.8361 116.828 14.3805C117.946 14.8562 118.947 15.571 119.759 16.4746H120.011L120.43 14.0036H123.906V33.3112H120.43L120.011 30.882H119.759C118.947 31.7857 117.946 32.5005 116.828 32.9761C115.655 33.4787 114.357 33.73 112.891 33.73ZM113.435 30.0863C114.608 30.0863 115.655 29.835 116.618 29.2905C117.603 28.7653 118.428 27.984 119.006 27.0289C119.592 26.0237 119.885 24.8929 119.885 23.6365C119.885 22.38 119.592 21.2911 119.006 20.3278C118.419 19.3226 117.623 18.5687 116.618 18.0662C115.65 17.5114 114.551 17.2224 113.435 17.2285C112.304 17.2285 111.215 17.5217 110.21 18.0662C109.247 18.5687 108.451 19.3226 107.865 20.3278C107.279 21.2911 106.985 22.38 106.985 23.6365C106.985 24.8929 107.279 26.0237 107.865 27.0289C108.438 27.9728 109.246 28.752 110.21 29.2905C111.215 29.835 112.304 30.0863 113.435 30.0863ZM87.971 33.73C86.2538 33.73 84.6204 33.3112 83.0708 32.4736C81.563 31.594 80.3484 30.4213 79.427 28.8717C78.5056 27.3221 78.0449 25.6049 78.0449 23.6365C78.0449 21.7518 78.5056 19.9927 79.427 18.485C80.3484 16.9353 81.563 15.7626 83.0708 14.8831C84.6204 14.0455 86.2538 13.5848 87.971 13.5848C89.4368 13.5848 90.6933 13.8361 91.8241 14.3805C92.9351 14.8114 93.9365 15.4837 94.7558 16.349H94.9652V6.46484H98.9859V33.3112H95.5097L95.0909 30.882H94.8396C94.0857 31.7616 93.0806 32.4736 91.9079 32.9761C90.7352 33.4787 89.4368 33.73 87.971 33.73ZM88.5154 30.0863C89.6881 30.0863 90.7352 29.835 91.6984 29.2905C92.6833 28.7653 93.5081 27.984 94.0857 27.0289C94.6721 26.0237 94.9652 24.8929 94.9652 23.6365C94.9652 22.38 94.6721 21.2911 94.0857 20.3278C93.4994 19.3226 92.7036 18.5687 91.6984 18.0662C90.7298 17.5114 89.6317 17.2224 88.5154 17.2285C87.3846 17.2285 86.2957 17.5217 85.2905 18.0662C84.3272 18.5687 83.5733 19.3226 82.9451 20.3278C82.3588 21.2911 82.0656 22.38 82.0656 23.6365C82.0656 24.8929 82.3588 26.0237 82.9451 27.0289C83.5733 27.9922 84.3272 28.7461 85.2905 29.2905C86.2957 29.835 87.3846 30.0863 88.5154 30.0863ZM74.3302 6.46484H70.0164V27.699H69.1368L56.9492 6.46484H50.625V33.3112H54.897V12.077H55.7765L67.9641 33.3112H74.3302V6.46484Z" fill="white"/>
<path d="M33.8655 8.6921C34.4955 9.05503 34.8104 9.2365 35.0408 9.48915C35.2533 9.72228 35.413 9.99838 35.509 10.2987C35.6131 10.6241 35.6131 10.9871 35.6131 11.7131V28.0066C35.6131 28.7643 35.6131 29.1432 35.4561 29.3637C35.3131 29.5645 35.0897 29.6933 34.8439 29.7165C34.5741 29.742 34.2454 29.5526 33.5879 29.1738L19.4478 21.0267C18.8178 20.6638 18.5029 20.4823 18.2725 20.2296C18.06 19.9965 17.9003 19.7204 17.8043 19.4201C17.7002 19.0947 17.7002 18.7317 17.7002 18.0057V1.7122C17.7002 0.954475 17.7002 0.575615 17.8572 0.355124C18.0002 0.154273 18.2236 0.0254734 18.4694 0.00227003C18.7392 -0.0232022 19.0679 0.166199 19.7254 0.545002L33.8655 8.6921Z" fill="#3C22F3"/>
<mask id="mask0_416_730" style="mask-type:alpha" maskUnits="userSpaceOnUse" x="17" y="0" width="19" height="30">
<path d="M33.8704 8.6921C34.5003 9.05503 34.8153 9.2365 35.0456 9.48915C35.2582 9.72228 35.4179 9.99838 35.5139 10.2987C35.618 10.6241 35.618 10.9871 35.618 11.7131V28.0066C35.618 28.7643 35.618 29.1432 35.461 29.3637C35.318 29.5645 35.0945 29.6933 34.8488 29.7165C34.579 29.742 34.2503 29.5526 33.5928 29.1738L19.4526 21.0267C18.8227 20.6638 18.5078 20.4823 18.2774 20.2296C18.0649 19.9965 17.9052 19.7204 17.8091 19.4201C17.7051 19.0947 17.7051 18.7317 17.7051 18.0057V1.7122C17.7051 0.954475 17.7051 0.575615 17.8621 0.355124C18.005 0.154273 18.2285 0.0254734 18.4743 0.00227003C18.7441 -0.0232022 19.0728 0.166199 19.7303 0.545002L33.8704 8.6921Z" fill="#52FFCB"/>
</mask>
<g mask="url(#mask0_416_730)">
<g filter="url(#filter0_f_416_730)">
<path d="M28.1443 11.2828C28.8243 11.6746 29.1643 11.8704 29.4129 12.1432C29.6424 12.3949 29.8148 12.6929 29.9185 13.0171C30.0308 13.3684 30.0308 13.7603 30.0308 14.544L30.0308 32.1332C30.0308 32.9512 30.0308 33.3602 29.8613 33.5982C29.707 33.8151 29.4657 33.9541 29.2004 33.9792C28.9092 34.0066 28.5543 33.8022 27.8446 33.3933L12.5799 24.5983C11.8999 24.2065 11.5599 24.0106 11.3112 23.7378C11.0818 23.4862 10.9094 23.1881 10.8057 22.8639C10.6934 22.5126 10.6934 22.1208 10.6934 21.3371L10.6934 3.74777C10.6934 2.92979 10.6934 2.5208 10.8628 2.28278C11.0172 2.06596 11.2584 1.92691 11.5237 1.90186C11.815 1.87437 12.1699 2.07883 12.8796 2.48776L28.1443 11.2828Z" fill="#52FFCB" fill-opacity="0.8"/>
</g>
</g>
<path d="M25.013 13.8337C25.6429 14.1966 25.9579 14.3781 26.1882 14.6308C26.4008 14.8639 26.5605 15.14 26.6565 15.4403C26.7606 15.7657 26.7606 16.1287 26.7606 16.8547V33.1482C26.7606 33.9059 26.7606 34.2848 26.6036 34.5053C26.4606 34.7061 26.2371 34.8349 25.9914 34.8581C25.7216 34.8836 25.3928 34.6942 24.7354 34.3154L10.5952 26.1683C9.96531 25.8054 9.65035 25.6239 9.42 25.3713C9.20746 25.1381 9.04774 24.862 8.95172 24.5617C8.84766 24.2363 8.84766 23.8733 8.84766 23.1473V6.8538C8.84766 6.09608 8.84766 5.71722 9.00463 5.49673C9.14763 5.29588 9.3711 5.16707 9.61686 5.14387C9.88665 5.1184 10.2154 5.3078 10.8728 5.6866L25.013 13.8337Z" fill="#C2FF52"/>
<path d="M16.1653 18.9753C16.7953 19.3382 17.1102 19.5197 17.3406 19.7724C17.5531 20.0055 17.7128 20.2816 17.8088 20.5819C17.9129 20.9073 17.9129 21.2703 17.9129 21.9963V38.2898C17.9129 39.0475 17.9129 39.4264 17.7559 39.6469C17.6129 39.8477 17.3895 39.9765 17.1437 39.9997C16.8739 40.0252 16.5452 39.8358 15.8877 39.457L1.74757 31.3099C1.11765 30.947 0.802693 30.7655 0.572346 30.5129C0.3598 30.2797 0.200079 30.0036 0.104061 29.7033C0 29.3779 0 29.0149 0 28.2889V11.9954C0 11.2377 0 10.8588 0.156976 10.6383C0.29997 10.4375 0.523449 10.3087 0.769207 10.2855C1.039 10.26 1.36772 10.4494 2.02518 10.8282L16.1653 18.9753Z" fill="#984FF5"/>
<g opacity="0.9">
<mask id="mask1_416_730" style="mask-type:alpha" maskUnits="userSpaceOnUse" x="-1" y="10" width="19" height="30">
<path d="M1.74481 31.3079C1.1149 30.945 0.799943 30.7635 0.569594 30.5108C0.357049 30.2777 0.197329 30.0016 0.10131 29.7013C-0.00275137 29.3759 -0.00275134 29.0129 -0.00275128 28.2869L-0.00274985 11.9934C-0.00274978 11.2357 -0.00274975 10.8568 0.154227 10.6363C0.297221 10.4355 0.520699 10.3067 0.766457 10.2835C1.03625 10.258 1.36497 10.4474 2.02243 10.8262L16.1626 18.9733C16.7925 19.3362 17.1075 19.5177 17.3378 19.7704C17.5504 20.0035 17.7101 20.2796 17.8061 20.5799C17.9102 20.9053 17.9102 21.2683 17.9102 21.9943L17.9102 38.2878C17.9102 39.0455 17.9102 39.4244 17.7532 39.6449C17.6102 39.8457 17.3867 39.9745 17.1409 39.9977C16.8712 40.0232 16.5424 39.8338 15.885 39.455L1.74481 31.3079Z" fill="#984FF5"/>
</mask>
<g mask="url(#mask1_416_730)">
<g filter="url(#filter1_f_416_730)">
<path d="M10.5974 26.1712C9.96744 25.8082 9.65248 25.6268 9.42213 25.3741C9.20959 25.141 9.04987 24.8649 8.95385 24.5646C8.84979 24.2392 8.84979 23.8762 8.84979 23.1502L8.84979 6.85667C8.84979 6.09895 8.84979 5.7201 9.00677 5.49961C9.14976 5.29875 9.37324 5.16995 9.61899 5.14675C9.88879 5.12128 10.2175 5.31068 10.875 5.68948L25.0151 13.8366C25.645 14.1995 25.96 14.381 26.1904 14.6336C26.4029 14.8668 26.5626 15.1429 26.6586 15.4431C26.7627 15.7686 26.7627 16.1316 26.7627 16.8575L26.7627 33.1511C26.7627 33.9088 26.7627 34.2877 26.6057 34.5082C26.4627 34.709 26.2392 34.8378 25.9935 34.861C25.7237 34.8865 25.395 34.6971 24.7375 34.3183L10.5974 26.1712Z" fill="#FFA6E6"/>
</g>
</g>
</g>
<defs>
<filter id="filter0_f_416_730" x="1.39733" y="-7.39662" width="37.9295" height="50.6743" filterUnits="userSpaceOnUse" color-interpolation-filters="sRGB">
<feFlood flood-opacity="0" result="BackgroundImageFix"/>
<feBlend mode="normal" in="SourceGraphic" in2="BackgroundImageFix" result="shape"/>
<feGaussianBlur stdDeviation="4.64802" result="effect1_foregroundBlur_416_730"/>
</filter>
<filter id="filter1_f_416_730" x="1.54577" y="-2.15949" width="32.521" height="44.3268" filterUnits="userSpaceOnUse" color-interpolation-filters="sRGB">
<feFlood flood-opacity="0" result="BackgroundImageFix"/>
<feBlend mode="normal" in="SourceGraphic" in2="BackgroundImageFix" result="shape"/>
<feGaussianBlur stdDeviation="3.65201" result="effect1_foregroundBlur_416_730"/>
</filter>
</defs>
</svg>
